<?xml version="1.0" encoding="UTF-8" standalone="no"?>
<svg xmlns:svg="http://www.w3.org/2000/svg" xmlns="http://www.w3.org/2000/svg" version="1.0" width="400pt" height="400pt" id="svg559">
  <defs id="defs561"/>
  <path d="M 218.24026,58.62407 C 218.24026,58.62407 64.14857,212.6865 64.14857,212.6865 C 55.65167,221.18324 51.236404,233.00945 51.21739,243.31761 C 51.196886,254.51664 130.62708,269.49478 139.07336,278.0153 C 151.8954,290.95005 89.89569,300.06159 102.6788,313.12258 C 115.11853,325.83273 180.26903,337.96514 193.1093,350.80438 C 205.94838,363.64345 166.8708,377.31473 179.71002,390.1538 C 192.54909,402.99302 235.67671,386.94441 227.8655,420.43382 C 245.20379,437.7721 281.37772,429.49264 305.59887,412.15436 C 318.43793,399.31529 280.9695,400.44761 293.80867,387.60852 C 306.64774,374.76929 339.05598,374.70004 366.36372,343.98773 C 354.21468,324.90887 306.77819,316.94418 342.63856,300.32559 C 344.66516,299.38642 441.5332,281.4923 446.90831,256.88732 C 450.24283,241.62328 446.13901,223.23374 434.88143,212.6865 C 434.88143,212.6865 280.81898,58.62407 280.81898,58.62407 C 262.94399,40.899325 235.16338,41.679598 218.24026,58.62407 z " style="fill:#000000;fill-opacity:1;fill-rule:evenodd" id="path2312"/>
  <path d="M 265.25476,74.802672 C 265.25476,74.802672 338.04385,128.78011 338.04385,128.78011 C 343.53189,132.26885 347.53364,137.45289 347.61896,143.7007 L 304.48715,122.87039 L 300.1865,155.43239 L 276.45982,144.31508 L 239.83124,168.77315 L 225.81758,120.44214 L 207.7666,162.71714 L 157.35839,167.74919 L 157.91426,145.30979 C 157.91426,139.92007 186.97155,102.18774 204.66545,93.204742 L 237.05191,69.946167 C 249.60877,61.722241 252.52707,66.429316 265.25476,74.802672 z M 181.20208,285.88517 C 204.14619,291.83549 229.67769,299.64222 250.15863,299.78181 L 251.03631,308.99747 C 233.4982,307.18969 196.38816,298.72196 187.63842,294.25241 L 181.20208,285.88517 z " style="fill:#ffffff;fill-opacity:1;fill-rule:evenodd" id="path8132"/>
  <path d="M 367.23262,363.44352 C 386.05667,367.20791 389.82312,380.38545 386.05667,384.14986 C 382.29326,387.91524 372.8812,391.67965 365.35133,386.03198 C 357.81948,380.38545 357.81948,367.20791 367.23262,363.44352 z " style="fill:#000000;fill-opacity:1;fill-rule:evenodd" id="droplet01"/>
  <path d="M 176.73664,364.70098 C 174.9024,365.19019 159.57875,351.98521 147.44379,358.10564 C 135.31192,364.2252 127.16746,377.9285 138.50146,383.55166 C 149.83654,389.17482 157.93903,382.69051 167.87583,375.71303 C 177.81373,368.73661 177.45516,367.39244 176.73664,364.70098 z " style="fill:#000000;fill-opacity:1;fill-rule:evenodd" id="droplet02"/>
  <path d="M 400.63226,331.2004 C 410.86964,328.64063 434.51803,331.2004 430.75158,346.25818 C 426.98824,361.3199 394.98767,355.67011 374.27841,348.1434 C 372.39611,333.08267 395.80707,332.40607 400.63226,331.2004 z " style="fill:#000000;fill-opacity:1;fill-rule:evenodd" id="droplet03"/>
  <path d="M 442.63991,162.31072 C 442.63991,162.31072 442.54506,72.847936 442.54506,72.847936 C 389.90801,110.87596 345.55975,145.27419 293.92892,215.84179 C 305.71948,222.14966 312.42609,231.11041 315.17007,243.33461 C 323.66297,238.06304 321.48996,238.78788 330.17456,233.54878 C 370.33306,210.42461 395.47535,196.36254 442.63991,162.31072 z " style="fill:#ffffff;fill-opacity:1;stroke:#000000;stroke-width:9.72291374;stroke-miterlimit:4;stroke-dasharray:none;stroke-opacity:1" id="path2176"/>
  <path d="M 285.45499,221.16524 C 297.23944,222.01263 304.70187,230.32497 306.0028,240.43082 C 307.30373,250.53667 302.42431,262.44738 286.34097,270.23227 C 271.63367,277.35111 247.06056,280.49809 210.3175,273.5101 C 225.1756,262.61448 233.67699,255.88237 237.13528,251.53529 C 256.40005,227.31947 273.67054,220.31784 285.45499,221.16524 z " style="fill:#ffffff;fill-opacity:1;stroke:none" id="path8028"/>
  <path d="M 239.27503,272.68956 C 250.234,265.75001 260.79566,264.87633 268.23793,262.59501 C 278.64744,259.40413 271.08569,258.87846 301.23442,245.84653 C 287.48896,266.86555 268.8715,276.7109 239.27503,272.68956 z " style="fill:#000000;fill-opacity:1;stroke:none" id="path8026"/>
</svg>